<svg width="54" height="54" viewBox="0 0 54 54" fill="none" xmlns="http://www.w3.org/2000/svg">
<rect width="54" height="54" rx="26.8418" fill="url(#paint0_linear_558_4481)"/>
<rect width="54" height="54" rx="26.8418" fill="url(#paint1_linear_558_4481)"/>
<path d="M17 15.5C14.7969 16.0685 13.0789 17.7948 12.5 20C11.9315 17.7864 10.2052 16.0685 8 15.5C10.2052 14.9294 11.9232 13.2031 12.5 11C13.0706 13.2031 14.7969 14.9211 17 15.5Z" fill="white"/>
<path d="M30.3039 34.6812C25.2832 36.9161 20.2583 38.3962 16.1472 38.8532C15.2377 38.956 14.4197 39 13.6763 39C9.54818 39 7.94209 37.5639 7.33501 36.2431C6.6193 34.6875 6.70237 31.9956 11.1543 28.0144C11.3737 27.8173 11.6122 27.6265 11.8444 27.4295V27.5007C11.8444 27.9766 11.87 28.4714 11.9211 28.9725C11.9616 29.3352 12.0127 29.7042 12.1022 30.1801C12.1661 30.5029 12.2385 30.8216 12.3216 31.1382C10.2128 33.2661 9.95503 34.5806 10.1467 35.0062C10.3661 35.4884 11.8316 36.2829 15.8 35.8448C19.5937 35.4192 24.2906 34.0271 29.0258 31.9201C39.9298 27.0626 44.5372 21.4922 43.8449 19.9932C43.5871 19.423 42.3687 19.0288 40.3558 19.0288C40.0725 19.0288 39.7615 19.0351 39.4462 19.054C39.2843 18.8255 39.1352 18.5969 38.9691 18.381C38.7816 18.1399 38.5814 17.9051 38.3684 17.664L38.2001 17.4795C37.9168 17.1755 37.6058 16.8631 37.2522 16.5403L37.1415 16.4438C37.0712 16.3809 37.0073 16.3243 36.9348 16.2593C41.7105 15.5801 45.4915 16.1776 46.6651 18.7374C48.84 23.4545 40.0789 30.331 30.3039 34.6812Z" fill="white"/>
<path d="M40 23.723C37.7815 25.8049 33.9686 28.5399 28.3045 31.0947C23.7062 33.1703 19.1609 34.5442 15.5072 34.9555C15.3523 34.9746 15.1994 34.9873 15.0508 35C14.1698 33.5753 13.5456 31.9809 13.2378 30.2742C13.1677 29.9011 13.1083 29.5343 13.0701 29.1569C13.0255 28.7074 13 28.2516 13 27.7958C13 20.1781 19.1864 14 26.8121 14C30.0199 14 32.9666 15.1046 35.3125 16.9364C35.4547 17.0445 35.5948 17.1611 35.7371 17.2756C35.8793 17.3986 36.0194 17.5322 36.1617 17.6615C36.4631 17.9371 36.7476 18.2254 37.0236 18.5286C37.0745 18.5859 37.1319 18.6431 37.1849 18.7025C37.3696 18.9208 37.5501 19.1392 37.7305 19.364C38.7283 20.6594 39.5117 22.1307 40 23.723Z" fill="black"/>
<path d="M40 23.723C37.7815 25.8049 33.9686 28.5399 28.3045 31.0947C23.7062 33.1703 19.1609 34.5442 15.5072 34.9555C15.3523 34.9746 15.1994 34.9873 15.0508 35C14.1698 33.5753 13.5456 31.9809 13.2378 30.2742C13.1677 29.9011 13.1083 29.5343 13.0701 29.1569C13.0255 28.7074 13 28.2516 13 27.7958C13 20.1781 19.1864 14 26.8121 14C30.0199 14 32.9666 15.1046 35.3125 16.9364C35.4547 17.0445 35.5948 17.1611 35.7371 17.2756C35.8793 17.3986 36.0194 17.5322 36.1617 17.6615C36.4631 17.9371 36.7476 18.2254 37.0236 18.5286C37.0745 18.5859 37.1319 18.6431 37.1849 18.7025C37.3696 18.9208 37.5501 19.1392 37.7305 19.364C38.7283 20.6594 39.5117 22.1307 40 23.723Z" fill="white"/>
<path d="M40 31C38.644 37.2913 33.1717 42 26.6175 42C24.2092 42 21.9612 41.3588 20 40.2404C23.2708 39.461 26.8473 38.2002 30.4175 36.5529C33.8676 34.9509 37.2016 33.0467 40 31Z" fill="black"/>
<path d="M40 31C38.644 37.2913 33.1717 42 26.6175 42C24.2092 42 21.9612 41.3588 20 40.2404C23.2708 39.461 26.8473 38.2002 30.4175 36.5529C33.8676 34.9509 37.2016 33.0467 40 31Z" fill="white"/>
<defs>
<linearGradient id="paint0_linear_558_4481" x1="39.42" y1="47.52" x2="16.74" y2="10.26" gradientUnits="userSpaceOnUse">
<stop stop-color="#05902D"/>
<stop offset="1" stop-color="#2AB95A"/>
</linearGradient>
<linearGradient id="paint1_linear_558_4481" x1="27" y1="0" x2="27" y2="54" gradientUnits="userSpaceOnUse">
<stop stop-color="#BD65D1"/>
<stop offset="1" stop-color="#806CDF"/>
</linearGradient>
</defs>
</svg>
